<?xml version="1.0" encoding="UTF-8"?>
<svg xmlns="http://www.w3.org/2000/svg" xmlns:xlink="http://www.w3.org/1999/xlink" width="561px" height="794px" viewBox="0 0 561 793" version="1.1">
<g id="surface1">
<path style=" stroke:none;fill-rule:evenodd;fill:rgb(0%,0%,0%);fill-opacity:1;" d="M 60.101562 408.089844 C 60.101562 406.011719 163.890625 404.324219 291.769531 404.324219 C 419.652344 404.324219 523.4375 406.011719 523.4375 408.089844 C 523.4375 410.171875 419.652344 411.859375 291.769531 411.859375 C 163.890625 411.859375 60.101562 410.171875 60.101562 408.089844 Z M 60.101562 408.089844 "/>
<path style="fill-rule:nonzero;fill:rgb(0%,0%,0%);fill-opacity:1;stroke-width:2.946445;stroke-linecap:round;stroke-linejoin:miter;stroke:rgb(99.607843%,99.607843%,99.607843%);stroke-opacity:1;stroke-miterlimit:4;" d="M -401.28077 483.149729 C -401.28077 462.239303 -418.593961 445.287276 -439.952113 445.287276 C -461.306448 445.287276 -478.61964 462.239303 -478.61964 483.149729 C -478.61964 504.060156 -461.306448 521.012183 -439.952113 521.012183 C -418.593961 521.012183 -401.28077 504.060156 -401.28077 483.149729 Z M -401.28077 483.149729 " transform="matrix(-1.02365,0,0,1.023338,4.900638,-105.948991)"/>
<path style="fill-rule:nonzero;fill:rgb(100%,100%,100%);fill-opacity:1;stroke-width:2.946445;stroke-linecap:round;stroke-linejoin:miter;stroke:rgb(99.607843%,99.607843%,99.607843%);stroke-opacity:1;stroke-miterlimit:4;" d="M -414.804673 483.149729 C -414.804673 497.036574 -426.061873 508.293391 -439.952113 508.293391 C -453.838536 508.293391 -465.099552 497.036574 -465.099552 483.149729 C -465.099552 469.259068 -453.838536 458.00225 -439.952113 458.00225 C -426.061873 458.00225 -414.804673 469.259068 -414.804673 483.149729 Z M -414.804673 483.149729 " transform="matrix(-1.02365,0,0,1.023338,4.900638,-105.948991)"/>
<path style="fill-rule:nonzero;fill:rgb(0%,0%,0%);fill-opacity:1;stroke-width:2.946445;stroke-linecap:round;stroke-linejoin:miter;stroke:rgb(99.607843%,99.607843%,99.607843%);stroke-opacity:1;stroke-miterlimit:4;" d="M -392.4445 483.14977 C -392.4445 462.239343 -409.753876 445.287316 -431.112028 445.287316 C -452.466363 445.287316 -469.779555 462.239343 -469.779555 483.14977 C -469.779555 504.060196 -452.466363 521.012224 -431.112028 521.012224 C -409.753876 521.012224 -392.4445 504.060196 -392.4445 483.14977 Z M -392.4445 483.14977 " transform="matrix(-1.02365,0,0,1.023338,-293.765049,-103.874814)"/>
<path style="fill-rule:nonzero;fill:rgb(100%,100%,100%);fill-opacity:1;stroke-width:2.946445;stroke-linecap:round;stroke-linejoin:miter;stroke:rgb(99.607843%,99.607843%,99.607843%);stroke-opacity:1;stroke-miterlimit:4;" d="M -405.964588 483.14977 C -405.964588 497.036614 -417.221788 508.293432 -431.112028 508.293432 C -444.998451 508.293432 -456.259467 497.036614 -456.259467 483.14977 C -456.259467 469.259108 -444.998451 458.002291 -431.112028 458.002291 C -417.221788 458.002291 -405.964588 469.259108 -405.964588 483.14977 Z M -405.964588 483.14977 " transform="matrix(-1.02365,0,0,1.023338,-293.765049,-103.874814)"/>
<path style=" stroke:none;fill-rule:evenodd;fill:rgb(0%,0%,0%);fill-opacity:1;" d="M 41.917969 310.539062 C 42.296875 310.058594 45.914062 312.789062 53.175781 316.453125 C 60.257812 320.023438 71.507812 324.734375 85.765625 326.191406 C 99.425781 327.617188 114.429688 325.929688 131.9375 320.992188 C 146.953125 316.734375 159.820312 311.332031 176.730469 304.996094 C 188.390625 300.609375 200.90625 296.273438 213.832031 292.824219 C 225.714844 289.652344 237.402344 287.371094 249.066406 286.222656 C 277.5625 283.390625 302.890625 288.164062 322.910156 298.601562 C 332.660156 303.726562 352.402344 317.851562 357.335938 320.929688 C 374.335938 331.539062 385.824219 334.59375 385.464844 335.730469 C 385.355469 336.074219 373.355469 334.492188 355.1875 324.617188 C 352.234375 323.007812 326.765625 307.152344 320.191406 303.984375 C 301.058594 294.660156 277.113281 290.75 249.8125 293.582031 C 238.625 294.75 227.355469 297.003906 215.78125 300.105469 C 203.210938 303.472656 190.871094 307.691406 179.289062 311.90625 C 162.613281 318 149.132812 323.363281 133.679688 327.394531 C 115.5 332.15625 99.480469 333.34375 85.128906 331.238281 C 53.320312 326.511719 42.457031 309.851562 41.917969 310.539062 Z M 41.917969 310.539062 "/>
<path style=" stroke:none;fill-rule:evenodd;fill:rgb(0%,0%,0%);fill-opacity:1;" d="M 47.980469 408.089844 C 47.792969 408.183594 46.390625 406.363281 44.765625 402.328125 C 43.199219 398.449219 41.261719 391.921875 41.410156 383.679688 C 41.535156 376.476562 43.308594 367.574219 48.382812 358.875 C 54.671875 348.160156 65.644531 338.457031 80.625 332.632812 C 93.855469 327.488281 108.355469 325.683594 124.53125 325.40625 C 143.402344 325.046875 162.285156 326.472656 183.375 328.640625 C 201.324219 330.480469 222.246094 333.023438 241.605469 334.214844 C 255.300781 335.0625 269.175781 335.324219 283.480469 335.25 C 288.632812 335.222656 370.589844 333.265625 373.007812 333.246094 C 405.875 332.972656 434.277344 334.464844 461.09375 338.671875 C 475.875 340.984375 488.757812 343.984375 500.667969 348.640625 C 510.898438 352.621094 519.324219 357.574219 525.953125 363.8125 C 533.457031 370.84375 537.441406 378.804688 538.628906 386.039062 C 539.832031 393.574219 537.910156 399.734375 536.335938 403.140625 C 534.664062 406.753906 533.121094 408.183594 532.980469 408.089844 C 532.691406 407.910156 533.792969 406.203125 534.933594 402.59375 C 536.011719 399.1875 537.28125 393.308594 535.769531 386.582031 C 534.339844 380.0625 530.324219 373.140625 523.183594 366.851562 C 516.824219 361.273438 508.796875 356.972656 498.882812 353.382812 C 487.308594 349.210938 474.820312 346.636719 460.21875 344.621094 C 433.6875 340.972656 405.785156 339.902344 373.097656 340.425781 C 351.097656 340.785156 308.726562 342.65625 283.519531 342.785156 C 269.09375 342.855469 255.039062 342.5625 241.132812 341.660156 C 221.371094 340.367188 200.550781 337.695312 182.617188 335.683594 C 161.613281 333.335938 143.109375 331.683594 124.601562 331.742188 C 108.769531 331.820312 95.023438 333.160156 82.554688 337.730469 C 68.507812 342.882812 58.082031 351.402344 51.984375 361.0625 C 47.023438 368.871094 44.96875 377.0625 44.457031 383.820312 C 43.871094 391.53125 45.210938 397.917969 46.265625 401.824219 C 47.363281 405.894531 48.277344 407.945312 47.980469 408.089844 Z M 47.980469 408.089844 "/>
</g>
</svg>
